<svg xmlns="http://www.w3.org/2000/svg" width="640" height="640" viewBox="0 0 640 640"><rect width="100%" height="100%" fill="#DDDDDD"/><path fill="#999999" d="m166.49 289.27-18.23 22.32-2.13 2.63q1.79-.89 3.85-1.38t4.44-.49q3.49 0 6.78 1.15t5.8 3.46q2.51 2.32 4.04 5.76t1.53 8.03q0 4.3-1.57 8.06-1.58 3.76-4.42 6.56-2.85 2.81-6.87 4.42-4.01 1.62-8.86 1.62-4.93 0-8.84-1.57-3.91-1.58-6.67-4.4-2.76-2.83-4.23-6.8-1.47-3.98-1.47-8.82 0-4.34 1.77-8.9 1.76-4.57 5.46-9.5l14.66-19.68q.77-1.02 2.23-1.74 1.47-.73 3.38-.73zm-15.85 53.55q2.51 0 4.61-.85t3.61-2.38 2.36-3.59.85-4.48q0-2.64-.81-4.74-.8-2.1-2.29-3.57t-3.57-2.23q-2.08-.77-4.59-.77t-4.55.85-3.48 2.36q-1.45 1.51-2.26 3.57-.8 2.06-.8 4.44 0 2.55.7 4.66.7 2.1 2.08 3.59t3.42 2.32q2.04.82 4.72.82m36.3-15.25h18.7v-20.11q0-2.84.38-6.29zm27.83 0h7.74v6.07q0 .86-.55 1.47-.56.62-1.58.62h-5.61v15h-9.13v-15h-25.93q-1.06 0-1.87-.66t-1.02-1.64l-1.1-5.31 29.11-38.89h9.94zm57.08-7.57q0 8.03-1.72 13.96t-4.76 9.8-7.18 5.76q-4.15 1.89-8.95 1.89t-8.9-1.89-7.12-5.76-4.72-9.8-1.7-13.96q0-8.07 1.7-13.98t4.72-9.78q3.02-3.86 7.12-5.75 4.1-1.9 8.9-1.9t8.95 1.9q4.14 1.89 7.18 5.75 3.04 3.87 4.76 9.78t1.72 13.98m-10.84 0q0-6.67-.97-11.05-.98-4.38-2.62-6.97-1.63-2.59-3.76-3.63-2.12-1.04-4.42-1.04-2.25 0-4.36 1.04-2.1 1.04-3.71 3.63-1.62 2.59-2.58 6.97-.95 4.38-.95 11.05t.95 11.05q.96 4.38 2.58 6.97 1.61 2.59 3.71 3.64 2.11 1.04 4.36 1.04 2.3 0 4.42-1.04 2.13-1.05 3.76-3.64 1.64-2.59 2.62-6.97.97-4.38.97-11.05m78.33 16.66-5.57 5.48-14.4-14.4-14.54 14.49-5.57-5.48 14.54-14.58-13.86-13.86 5.53-5.52 13.85 13.85 13.77-13.77 5.61 5.53-13.81 13.81zM405 289.27l-18.23 22.32-2.12 2.63q1.78-.89 3.84-1.38t4.44-.49q3.49 0 6.78 1.15 3.3 1.15 5.8 3.46 2.51 2.32 4.04 5.76t1.53 8.03q0 4.3-1.57 8.06t-4.42 6.56q-2.85 2.81-6.87 4.42-4.01 1.62-8.86 1.62-4.93 0-8.84-1.57-3.91-1.58-6.67-4.4-2.76-2.83-4.23-6.8-1.46-3.98-1.46-8.82 0-4.34 1.76-8.9 1.76-4.57 5.46-9.5l14.66-19.68q.77-1.02 2.23-1.74 1.47-.73 3.38-.73zm-15.85 53.55q2.51 0 4.61-.85 2.11-.85 3.61-2.38 1.51-1.53 2.36-3.59t.85-4.48q0-2.64-.8-4.74-.81-2.1-2.3-3.57t-3.57-2.23q-2.08-.77-4.59-.77t-4.55.85-3.48 2.36q-1.45 1.51-2.25 3.57-.81 2.06-.81 4.44 0 2.55.7 4.66.7 2.1 2.08 3.59t3.42 2.32q2.04.82 4.72.82m36.3-15.25h18.7v-20.11q0-2.84.38-6.29zm27.83 0h7.74v6.07q0 .86-.55 1.47-.56.62-1.58.62h-5.61v15h-9.13v-15h-25.93q-1.06 0-1.87-.66t-1.02-1.64l-1.1-5.31 29.11-38.89h9.94zm57.08-7.57q0 8.03-1.72 13.96t-4.76 9.8-7.18 5.76q-4.15 1.89-8.95 1.89t-8.9-1.89-7.12-5.76-4.72-9.8-1.7-13.96q0-8.07 1.7-13.98t4.72-9.78q3.02-3.86 7.12-5.75 4.1-1.9 8.9-1.9t8.95 1.9q4.14 1.89 7.18 5.75 3.04 3.87 4.76 9.78t1.72 13.98m-10.84 0q0-6.67-.97-11.05-.98-4.38-2.62-6.97-1.63-2.59-3.76-3.63-2.12-1.04-4.42-1.04-2.25 0-4.36 1.04-2.1 1.04-3.71 3.63-1.62 2.59-2.58 6.97-.95 4.38-.95 11.05t.95 11.05q.96 4.38 2.58 6.97 1.61 2.59 3.71 3.64 2.11 1.04 4.36 1.04 2.3 0 4.42-1.04 2.13-1.05 3.76-3.64 1.64-2.59 2.62-6.97.97-4.38.97-11.05"/></svg>