<svg width="275" height="275" viewBox="0 0 275 275" fill="none" xmlns="http://www.w3.org/2000/svg">
<path d="M137.5 0C213.439 0 275 61.5608 275 137.5C275 213.439 213.439 275 137.5 275C61.5608 275 0 213.439 0 137.5C0 61.5608 61.5608 0 137.5 0ZM202.7 47C158.475 77.7021 123.7 66.0002 85.7002 100C47.7002 134 69.7097 192.954 76.7002 202C104.995 138.617 123.274 129.082 156.2 112.5C127.658 143.63 106.44 150.491 84.7002 231.5L93.7002 242C97.636 225.986 99.9704 218.023 104.7 205C137.846 199.015 160.554 191.658 177.7 174.5C204.199 148.824 214.344 105.653 202.7 47Z" fill="#4EA542"/>
</svg>
