<svg width="1251" height="275" viewBox="0 0 1251 275" fill="none" xmlns="http://www.w3.org/2000/svg">
<path d="M137.5 0C213.439 0 275 61.5608 275 137.5C275 213.439 213.439 275 137.5 275C61.5608 275 0 213.439 0 137.5C0 61.5608 61.5608 0 137.5 0ZM202.7 47C158.475 77.7021 123.7 66.0002 85.7002 100C47.7002 134 69.7097 192.954 76.7002 202C104.995 138.617 123.274 129.082 156.2 112.5C127.658 143.63 106.44 150.491 84.7002 231.5L93.7002 242C97.636 225.986 99.9704 218.023 104.7 205C137.846 199.015 160.554 191.658 177.7 174.5C204.199 148.824 214.344 105.653 202.7 47Z" fill="#4EA542"/>
<path d="M375.486 194.61C365.182 194.61 356.542 193.107 349.565 190.102C342.696 187.097 337.49 183.179 333.948 178.349C330.406 173.519 328.528 168.367 328.313 162.893C328.313 162.034 328.635 161.283 329.279 160.639C329.923 159.888 330.728 159.512 331.694 159.512H348.921C350.316 159.512 351.39 159.834 352.141 160.478C352.892 161.015 353.59 161.712 354.234 162.571C354.985 164.396 356.166 166.167 357.776 167.884C359.493 169.601 361.801 171.05 364.699 172.231C367.597 173.304 371.193 173.841 375.486 173.841C382.463 173.841 387.668 172.714 391.103 170.46C394.645 168.206 396.416 165.147 396.416 161.283C396.416 158.492 395.45 156.238 393.518 154.521C391.693 152.804 388.742 151.247 384.663 149.852C380.692 148.457 375.379 146.954 368.724 145.344C360.674 143.627 353.805 141.426 348.116 138.743C342.535 135.952 338.295 132.41 335.397 128.117C332.606 123.716 331.211 118.296 331.211 111.856C331.211 105.416 332.982 99.7273 336.524 94.79C340.066 89.7453 345.057 85.8277 351.497 83.037C357.937 80.139 365.611 78.69 374.52 78.69C381.711 78.69 388.044 79.656 393.518 81.588C399.099 83.52 403.715 86.0423 407.364 89.155C411.121 92.2677 413.965 95.595 415.897 99.137C417.829 102.679 418.849 106.114 418.956 109.441C418.956 110.3 418.634 111.105 417.99 111.856C417.346 112.5 416.541 112.822 415.575 112.822H397.543C396.47 112.822 395.504 112.607 394.645 112.178C393.786 111.749 393.089 110.997 392.552 109.924C391.908 107.133 389.976 104.718 386.756 102.679C383.643 100.532 379.565 99.459 374.52 99.459C369.261 99.459 365.075 100.425 361.962 102.357C358.957 104.289 357.454 107.241 357.454 111.212C357.454 113.788 358.205 115.988 359.708 117.813C361.318 119.53 363.948 121.087 367.597 122.482C371.354 123.77 376.291 125.219 382.409 126.829C391.854 128.761 399.529 131.069 405.432 133.752C411.335 136.435 415.682 139.924 418.473 144.217C421.264 148.403 422.659 153.716 422.659 160.156C422.659 167.347 420.62 173.519 416.541 178.671C412.57 183.823 407.042 187.794 399.958 190.585C392.981 193.268 384.824 194.61 375.486 194.61ZM464.413 194.61C458.725 194.61 453.626 193.537 449.118 191.39C444.61 189.136 441.015 186.131 438.331 182.374C435.648 178.617 434.306 174.431 434.306 169.816C434.306 162.195 437.365 156.185 443.483 151.784C449.709 147.383 457.866 144.378 467.955 142.768L489.046 139.709V136.811C489.046 132.625 488.08 129.405 486.148 127.151C484.216 124.897 480.835 123.77 476.005 123.77C472.463 123.77 469.619 124.468 467.472 125.863C465.326 127.258 463.662 129.083 462.481 131.337C461.623 132.732 460.388 133.43 458.778 133.43H443.483C442.303 133.43 441.39 133.108 440.746 132.464C440.102 131.713 439.834 130.854 439.941 129.888C439.941 128.063 440.639 125.917 442.034 123.448C443.43 120.979 445.576 118.564 448.474 116.203C451.372 113.734 455.075 111.695 459.583 110.085C464.091 108.475 469.619 107.67 476.166 107.67C482.928 107.67 488.724 108.475 493.554 110.085C498.384 111.695 502.248 113.949 505.146 116.847C508.044 119.745 510.191 123.126 511.586 126.99C512.982 130.747 513.679 134.825 513.679 139.226V188.975C513.679 190.156 513.304 191.122 512.552 191.873C511.801 192.624 510.835 193 509.654 193H493.876C492.803 193 491.891 192.624 491.139 191.873C490.388 191.122 490.012 190.156 490.012 188.975V183.018C488.617 185.057 486.739 186.989 484.377 188.814C482.016 190.531 479.172 191.927 475.844 193C472.624 194.073 468.814 194.61 464.413 194.61ZM470.853 177.866C474.395 177.866 477.562 177.115 480.352 175.612C483.143 174.109 485.343 171.802 486.953 168.689C488.563 165.576 489.368 161.659 489.368 156.936V154.199L474.395 156.614C468.599 157.58 464.36 159.029 461.676 160.961C458.993 162.893 457.651 165.254 457.651 168.045C457.651 170.084 458.242 171.855 459.422 173.358C460.71 174.861 462.374 175.988 464.413 176.739C466.453 177.49 468.599 177.866 470.853 177.866ZM547.562 223.59C546.704 223.59 545.899 223.268 545.147 222.624C544.503 221.98 544.181 221.175 544.181 220.209C544.181 219.994 544.235 219.672 544.342 219.243C544.45 218.921 544.611 218.492 544.825 217.955L557.383 187.848L526.471 114.915C526.149 114.056 525.988 113.359 525.988 112.822C526.096 111.856 526.471 111.051 527.115 110.407C527.759 109.656 528.564 109.28 529.53 109.28H545.147C546.543 109.28 547.562 109.656 548.206 110.407C548.85 111.051 549.333 111.749 549.655 112.5L569.619 162.41L590.066 112.5C590.496 111.641 591.032 110.89 591.676 110.246C592.32 109.602 593.34 109.28 594.735 109.28H610.03C610.996 109.28 611.801 109.656 612.445 110.407C613.197 111.051 613.572 111.802 613.572 112.661C613.572 113.198 613.358 113.949 612.928 114.915L567.365 220.37C567.043 221.229 566.507 221.98 565.755 222.624C565.111 223.268 564.092 223.59 562.696 223.59H547.562ZM658.807 194.61C652.582 194.61 647.054 193.215 642.224 190.424C637.501 187.526 633.798 183.394 631.115 178.027C628.539 172.553 627.251 165.952 627.251 158.224V113.305C627.251 112.124 627.627 111.158 628.378 110.407C629.129 109.656 630.042 109.28 631.115 109.28H648.181C649.362 109.28 650.328 109.656 651.079 110.407C651.83 111.158 652.206 112.124 652.206 113.305V157.258C652.206 169.279 657.465 175.29 667.984 175.29C673.029 175.29 677 173.734 679.898 170.621C682.903 167.401 684.406 162.947 684.406 157.258V113.305C684.406 112.124 684.782 111.158 685.533 110.407C686.284 109.656 687.25 109.28 688.431 109.28H705.497C706.57 109.28 707.483 109.656 708.234 110.407C708.985 111.158 709.361 112.124 709.361 113.305V188.975C709.361 190.156 708.985 191.122 708.234 191.873C707.483 192.624 706.57 193 705.497 193H689.719C688.538 193 687.572 192.624 686.821 191.873C686.07 191.122 685.694 190.156 685.694 188.975V182.696C682.903 186.56 679.308 189.512 674.907 191.551C670.506 193.59 665.14 194.61 658.807 194.61ZM735.098 193C734.025 193 733.113 192.624 732.361 191.873C731.61 191.122 731.234 190.156 731.234 188.975V113.305C731.234 112.232 731.61 111.319 732.361 110.568C733.113 109.709 734.025 109.28 735.098 109.28H750.876C751.95 109.28 752.862 109.709 753.613 110.568C754.472 111.319 754.901 112.232 754.901 113.305V119.745C757.585 116.418 760.858 113.842 764.722 112.017C768.694 110.192 773.255 109.28 778.407 109.28H785.33C786.404 109.28 787.316 109.656 788.067 110.407C788.819 111.158 789.194 112.124 789.194 113.305V127.151C789.194 128.332 788.819 129.298 788.067 130.049C787.316 130.8 786.404 131.176 785.33 131.176H771.162C766.44 131.176 762.737 132.518 760.053 135.201C757.37 137.777 756.028 141.48 756.028 146.31V188.975C756.028 190.156 755.653 191.122 754.901 191.873C754.15 192.624 753.184 193 752.003 193H735.098ZM842.448 193C841.267 193 840.301 192.624 839.55 191.873C838.798 191.122 838.423 190.156 838.423 188.975V84.325C838.423 83.1443 838.798 82.1783 839.55 81.427C840.301 80.6757 841.267 80.3 842.448 80.3H860.319C861.499 80.3 862.465 80.6757 863.217 81.427C863.968 82.1783 864.344 83.1443 864.344 84.325V171.426H914.254C915.434 171.426 916.4 171.802 917.152 172.553C917.903 173.304 918.279 174.27 918.279 175.451V188.975C918.279 190.156 917.903 191.122 917.152 191.873C916.4 192.624 915.434 193 914.254 193H842.448ZM970.287 194.61C961.378 194.61 953.918 193.161 947.908 190.263C941.897 187.258 937.282 183.018 934.062 177.544C930.949 172.07 929.232 165.684 928.91 158.385C928.802 156.238 928.749 153.823 928.749 151.14C928.749 148.349 928.802 145.934 928.91 143.895C929.232 136.489 931.056 130.103 934.384 124.736C937.711 119.262 942.38 115.076 948.391 112.178C954.401 109.173 961.7 107.67 970.287 107.67C978.766 107.67 986.011 109.173 992.022 112.178C998.032 115.076 1002.7 119.262 1006.03 124.736C1009.36 130.103 1011.18 136.489 1011.5 143.895C1011.72 145.934 1011.82 148.349 1011.82 151.14C1011.82 153.823 1011.72 156.238 1011.5 158.385C1011.18 165.684 1009.41 172.07 1006.19 177.544C1003.08 183.018 998.515 187.258 992.505 190.263C986.494 193.161 979.088 194.61 970.287 194.61ZM970.287 176.9C975.546 176.9 979.517 175.29 982.201 172.07C984.884 168.743 986.333 163.913 986.548 157.58C986.655 155.97 986.709 153.823 986.709 151.14C986.709 148.457 986.655 146.31 986.548 144.7C986.333 138.475 984.884 133.698 982.201 130.371C979.517 127.044 975.546 125.38 970.287 125.38C965.027 125.38 961.002 127.044 958.212 130.371C955.528 133.698 954.079 138.475 953.865 144.7C953.757 146.31 953.704 148.457 953.704 151.14C953.704 153.823 953.757 155.97 953.865 157.58C954.079 163.913 955.528 168.743 958.212 172.07C961.002 175.29 965.027 176.9 970.287 176.9ZM1034.3 193C1033.12 193 1032.15 192.624 1031.4 191.873C1030.65 191.122 1030.27 190.156 1030.27 188.975V82.715C1030.27 81.5343 1030.65 80.5683 1031.4 79.817C1032.15 79.0657 1033.12 78.69 1034.3 78.69H1050.08C1051.15 78.69 1052.06 79.0657 1052.81 79.817C1053.56 80.5683 1053.94 81.5343 1053.94 82.715V137.133L1078.73 112.017C1079.59 111.266 1080.34 110.622 1080.99 110.085C1081.74 109.548 1082.87 109.28 1084.37 109.28H1102.56C1103.64 109.28 1104.49 109.656 1105.14 110.407C1105.78 111.051 1106.1 111.856 1106.1 112.822C1106.1 113.251 1106 113.734 1105.78 114.271C1105.57 114.808 1105.19 115.237 1104.66 115.559L1073.58 146.793L1108.68 186.882C1109.65 187.741 1110.13 188.599 1110.13 189.458C1110.13 190.424 1109.75 191.283 1109 192.034C1108.36 192.678 1107.55 193 1106.59 193H1087.91C1086.3 193 1085.12 192.732 1084.37 192.195C1083.73 191.658 1082.97 191.014 1082.12 190.263L1053.94 158.707V188.975C1053.94 190.156 1053.56 191.122 1052.81 191.873C1052.06 192.624 1051.15 193 1050.08 193H1034.3ZM1146.14 194.61C1140.45 194.61 1135.35 193.537 1130.84 191.39C1126.33 189.136 1122.74 186.131 1120.05 182.374C1117.37 178.617 1116.03 174.431 1116.03 169.816C1116.03 162.195 1119.09 156.185 1125.21 151.784C1131.43 147.383 1139.59 144.378 1149.68 142.768L1170.77 139.709V136.811C1170.77 132.625 1169.8 129.405 1167.87 127.151C1165.94 124.897 1162.56 123.77 1157.73 123.77C1154.19 123.77 1151.34 124.468 1149.19 125.863C1147.05 127.258 1145.38 129.083 1144.2 131.337C1143.34 132.732 1142.11 133.43 1140.5 133.43H1125.21C1124.02 133.43 1123.11 133.108 1122.47 132.464C1121.82 131.713 1121.56 130.854 1121.66 129.888C1121.66 128.063 1122.36 125.917 1123.76 123.448C1125.15 120.979 1127.3 118.564 1130.2 116.203C1133.09 113.734 1136.8 111.695 1141.31 110.085C1145.81 108.475 1151.34 107.67 1157.89 107.67C1164.65 107.67 1170.45 108.475 1175.28 110.085C1180.11 111.695 1183.97 113.949 1186.87 116.847C1189.77 119.745 1191.91 123.126 1193.31 126.99C1194.7 130.747 1195.4 134.825 1195.4 139.226V188.975C1195.4 190.156 1195.03 191.122 1194.27 191.873C1193.52 192.624 1192.56 193 1191.38 193H1175.6C1174.52 193 1173.61 192.624 1172.86 191.873C1172.11 191.122 1171.73 190.156 1171.73 188.975V183.018C1170.34 185.057 1168.46 186.989 1166.1 188.814C1163.74 190.531 1160.89 191.927 1157.57 193C1154.35 194.073 1150.54 194.61 1146.14 194.61ZM1152.58 177.866C1156.12 177.866 1159.28 177.115 1162.07 175.612C1164.86 174.109 1167.07 171.802 1168.68 168.689C1170.29 165.576 1171.09 161.659 1171.09 156.936V154.199L1156.12 156.614C1150.32 157.58 1146.08 159.029 1143.4 160.961C1140.71 162.893 1139.37 165.254 1139.37 168.045C1139.37 170.084 1139.96 171.855 1141.14 173.358C1142.43 174.861 1144.1 175.988 1146.14 176.739C1148.17 177.49 1150.32 177.866 1152.58 177.866ZM1220.53 193C1219.35 193 1218.38 192.624 1217.63 191.873C1216.88 191.122 1216.5 190.156 1216.5 188.975V82.715C1216.5 81.5343 1216.88 80.5683 1217.63 79.817C1218.38 79.0657 1219.35 78.69 1220.53 78.69H1236.63C1237.7 78.69 1238.62 79.0657 1239.37 79.817C1240.12 80.5683 1240.49 81.5343 1240.49 82.715V188.975C1240.49 190.156 1240.12 191.122 1239.37 191.873C1238.62 192.624 1237.7 193 1236.63 193H1220.53Z" fill="#1B2338"/>
</svg>
