<svg width="817" height="306" viewBox="0 0 817 306" fill="none" xmlns="http://www.w3.org/2000/svg">
<path d="M137.5 15.5C213.439 15.5 275 77.0608 275 153C275 228.939 213.439 290.5 137.5 290.5C61.5608 290.5 0 228.939 0 153C0 77.0608 61.5608 15.5 137.5 15.5ZM202.7 62.5C158.475 93.2021 123.7 81.5002 85.7002 115.5C47.7002 149.5 69.7097 208.454 76.7002 217.5C104.995 154.117 123.274 144.582 156.2 128C127.658 159.13 106.44 165.991 84.7002 247L93.7002 257.5C97.636 241.486 99.9704 233.523 104.7 220.5C137.846 214.515 160.554 207.158 177.7 190C204.199 164.324 214.344 121.153 202.7 62.5Z" fill="#4EA542"/>
<path d="M375.486 133.61C365.182 133.61 356.542 132.107 349.565 129.102C342.696 126.097 337.49 122.179 333.948 117.349C330.406 112.519 328.528 107.367 328.313 101.893C328.313 101.034 328.635 100.283 329.279 99.639C329.923 98.8877 330.728 98.512 331.694 98.512H348.921C350.316 98.512 351.39 98.834 352.141 99.478C352.892 100.015 353.59 100.712 354.234 101.571C354.985 103.396 356.166 105.167 357.776 106.884C359.493 108.601 361.801 110.05 364.699 111.231C367.597 112.304 371.193 112.841 375.486 112.841C382.463 112.841 387.668 111.714 391.103 109.46C394.645 107.206 396.416 104.147 396.416 100.283C396.416 97.4923 395.45 95.2383 393.518 93.521C391.693 91.8037 388.742 90.2473 384.663 88.852C380.692 87.4567 375.379 85.954 368.724 84.344C360.674 82.6267 353.805 80.4263 348.116 77.743C342.535 74.9523 338.295 71.4103 335.397 67.117C332.606 62.7163 331.211 57.296 331.211 50.856C331.211 44.416 332.982 38.7273 336.524 33.79C340.066 28.7453 345.057 24.8277 351.497 22.037C357.937 19.139 365.611 17.69 374.52 17.69C381.711 17.69 388.044 18.656 393.518 20.588C399.099 22.52 403.715 25.0423 407.364 28.155C411.121 31.2677 413.965 34.595 415.897 38.137C417.829 41.679 418.849 45.1137 418.956 48.441C418.956 49.2997 418.634 50.1047 417.99 50.856C417.346 51.5 416.541 51.822 415.575 51.822H397.543C396.47 51.822 395.504 51.6073 394.645 51.178C393.786 50.7487 393.089 49.9973 392.552 48.924C391.908 46.1333 389.976 43.7183 386.756 41.679C383.643 39.5323 379.565 38.459 374.52 38.459C369.261 38.459 365.075 39.425 361.962 41.357C358.957 43.289 357.454 46.2407 357.454 50.212C357.454 52.788 358.205 54.9883 359.708 56.813C361.318 58.5303 363.948 60.0867 367.597 61.482C371.354 62.77 376.291 64.219 382.409 65.829C391.854 67.761 399.529 70.0687 405.432 72.752C411.335 75.4353 415.682 78.9237 418.473 83.217C421.264 87.403 422.659 92.716 422.659 99.156C422.659 106.347 420.62 112.519 416.541 117.671C412.57 122.823 407.042 126.794 399.958 129.585C392.981 132.268 384.824 133.61 375.486 133.61ZM462.803 133.61C457.115 133.61 452.016 132.537 447.508 130.39C443 128.136 439.405 125.131 436.721 121.374C434.038 117.617 432.696 113.431 432.696 108.816C432.696 101.195 435.755 95.1847 441.873 90.784C448.099 86.3833 456.256 83.378 466.345 81.768L487.436 78.709V75.811C487.436 71.625 486.47 68.405 484.538 66.151C482.606 63.897 479.225 62.77 474.395 62.77C470.853 62.77 468.009 63.4677 465.862 64.863C463.716 66.2583 462.052 68.083 460.871 70.337C460.013 71.7323 458.778 72.43 457.168 72.43H441.873C440.693 72.43 439.78 72.108 439.136 71.464C438.492 70.7127 438.224 69.854 438.331 68.888C438.331 67.0633 439.029 64.9167 440.424 62.448C441.82 59.9793 443.966 57.5643 446.864 55.203C449.762 52.7343 453.465 50.695 457.973 49.085C462.481 47.475 468.009 46.67 474.556 46.67C481.318 46.67 487.114 47.475 491.944 49.085C496.774 50.695 500.638 52.949 503.536 55.847C506.434 58.745 508.581 62.126 509.976 65.99C511.372 69.7467 512.069 73.8253 512.069 78.226V127.975C512.069 129.156 511.694 130.122 510.942 130.873C510.191 131.624 509.225 132 508.044 132H492.266C491.193 132 490.281 131.624 489.529 130.873C488.778 130.122 488.402 129.156 488.402 127.975V122.018C487.007 124.057 485.129 125.989 482.767 127.814C480.406 129.531 477.562 130.927 474.234 132C471.014 133.073 467.204 133.61 462.803 133.61ZM469.243 116.866C472.785 116.866 475.952 116.115 478.742 114.612C481.533 113.109 483.733 110.802 485.343 107.689C486.953 104.576 487.758 100.659 487.758 95.936V93.199L472.785 95.614C466.989 96.58 462.75 98.029 460.066 99.961C457.383 101.893 456.041 104.254 456.041 107.045C456.041 109.084 456.632 110.855 457.812 112.358C459.1 113.861 460.764 114.988 462.803 115.739C464.843 116.49 466.989 116.866 469.243 116.866ZM544.342 162.59C543.484 162.59 542.679 162.268 541.927 161.624C541.283 160.98 540.961 160.175 540.961 159.209C540.961 158.994 541.015 158.672 541.122 158.243C541.23 157.921 541.391 157.492 541.605 156.955L554.163 126.848L523.251 53.915C522.929 53.0563 522.768 52.3587 522.768 51.822C522.876 50.856 523.251 50.051 523.895 49.407C524.539 48.6557 525.344 48.28 526.31 48.28H541.927C543.323 48.28 544.342 48.6557 544.986 49.407C545.63 50.051 546.113 50.7487 546.435 51.5L566.399 101.41L586.846 51.5C587.276 50.6413 587.812 49.89 588.456 49.246C589.1 48.602 590.12 48.28 591.515 48.28H606.81C607.776 48.28 608.581 48.6557 609.225 49.407C609.977 50.051 610.352 50.8023 610.352 51.661C610.352 52.1977 610.138 52.949 609.708 53.915L564.145 159.37C563.823 160.229 563.287 160.98 562.535 161.624C561.891 162.268 560.872 162.59 559.476 162.59H544.342ZM653.977 133.61C647.752 133.61 642.224 132.215 637.394 129.424C632.671 126.526 628.968 122.394 626.285 117.027C623.709 111.553 622.421 104.952 622.421 97.224V52.305C622.421 51.1243 622.797 50.1583 623.548 49.407C624.299 48.6557 625.212 48.28 626.285 48.28H643.351C644.532 48.28 645.498 48.6557 646.249 49.407C647 50.1583 647.376 51.1243 647.376 52.305V96.258C647.376 108.279 652.635 114.29 663.154 114.29C668.199 114.29 672.17 112.734 675.068 109.621C678.073 106.401 679.576 101.947 679.576 96.258V52.305C679.576 51.1243 679.952 50.1583 680.703 49.407C681.454 48.6557 682.42 48.28 683.601 48.28H700.667C701.74 48.28 702.653 48.6557 703.404 49.407C704.155 50.1583 704.531 51.1243 704.531 52.305V127.975C704.531 129.156 704.155 130.122 703.404 130.873C702.653 131.624 701.74 132 700.667 132H684.889C683.708 132 682.742 131.624 681.991 130.873C681.24 130.122 680.864 129.156 680.864 127.975V121.696C678.073 125.56 674.478 128.512 670.077 130.551C665.676 132.59 660.31 133.61 653.977 133.61ZM728.658 132C727.585 132 726.673 131.624 725.921 130.873C725.17 130.122 724.794 129.156 724.794 127.975V52.305C724.794 51.2317 725.17 50.3193 725.921 49.568C726.673 48.7093 727.585 48.28 728.658 48.28H744.436C745.51 48.28 746.422 48.7093 747.173 49.568C748.032 50.3193 748.461 51.2317 748.461 52.305V58.745C751.145 55.4177 754.418 52.8417 758.282 51.017C762.254 49.1923 766.815 48.28 771.967 48.28H778.89C779.964 48.28 780.876 48.6557 781.627 49.407C782.379 50.1583 782.754 51.1243 782.754 52.305V66.151C782.754 67.3317 782.379 68.2977 781.627 69.049C780.876 69.8003 779.964 70.176 778.89 70.176H764.722C760 70.176 756.297 71.5177 753.613 74.201C750.93 76.777 749.588 80.48 749.588 85.31V127.975C749.588 129.156 749.213 130.122 748.461 130.873C747.71 131.624 746.744 132 745.563 132H728.658ZM338.939 285C337.758 285 336.792 284.624 336.041 283.873C335.29 283.122 334.914 282.156 334.914 280.975V176.325C334.914 175.144 335.29 174.178 336.041 173.427C336.792 172.676 337.758 172.3 338.939 172.3H356.81C357.991 172.3 358.957 172.676 359.708 173.427C360.459 174.178 360.835 175.144 360.835 176.325V263.426H410.745C411.926 263.426 412.892 263.802 413.643 264.553C414.394 265.304 414.77 266.27 414.77 267.451V280.975C414.77 282.156 414.394 283.122 413.643 283.873C412.892 284.624 411.926 285 410.745 285H338.939ZM465.168 286.61C456.259 286.61 448.8 285.161 442.789 282.263C436.778 279.258 432.163 275.018 428.943 269.544C425.83 264.07 424.113 257.684 423.791 250.385C423.684 248.238 423.63 245.823 423.63 243.14C423.63 240.349 423.684 237.934 423.791 235.895C424.113 228.489 425.938 222.103 429.265 216.736C432.592 211.262 437.261 207.076 443.272 204.178C449.283 201.173 456.581 199.67 465.168 199.67C473.647 199.67 480.892 201.173 486.903 204.178C492.914 207.076 497.583 211.262 500.91 216.736C504.237 222.103 506.062 228.489 506.384 235.895C506.599 237.934 506.706 240.349 506.706 243.14C506.706 245.823 506.599 248.238 506.384 250.385C506.062 257.684 504.291 264.07 501.071 269.544C497.958 275.018 493.397 279.258 487.386 282.263C481.375 285.161 473.969 286.61 465.168 286.61ZM465.168 268.9C470.427 268.9 474.399 267.29 477.082 264.07C479.765 260.743 481.214 255.913 481.429 249.58C481.536 247.97 481.59 245.823 481.59 243.14C481.59 240.457 481.536 238.31 481.429 236.7C481.214 230.475 479.765 225.698 477.082 222.371C474.399 219.044 470.427 217.38 465.168 217.38C459.909 217.38 455.884 219.044 453.093 222.371C450.41 225.698 448.961 230.475 448.746 236.7C448.639 238.31 448.585 240.457 448.585 243.14C448.585 245.823 448.639 247.97 448.746 249.58C448.961 255.913 450.41 260.743 453.093 264.07C455.884 267.29 459.909 268.9 465.168 268.9ZM527.569 285C526.389 285 525.423 284.624 524.671 283.873C523.92 283.122 523.544 282.156 523.544 280.975V174.715C523.544 173.534 523.92 172.568 524.671 171.817C525.423 171.066 526.389 170.69 527.569 170.69H543.347C544.421 170.69 545.333 171.066 546.084 171.817C546.836 172.568 547.211 173.534 547.211 174.715V229.133L572.005 204.017C572.864 203.266 573.615 202.622 574.259 202.085C575.011 201.548 576.138 201.28 577.64 201.28H595.833C596.907 201.28 597.765 201.656 598.409 202.407C599.053 203.051 599.375 203.856 599.375 204.822C599.375 205.251 599.268 205.734 599.053 206.271C598.839 206.808 598.463 207.237 597.926 207.559L566.853 238.793L601.951 278.882C602.917 279.741 603.4 280.599 603.4 281.458C603.4 282.424 603.025 283.283 602.273 284.034C601.629 284.678 600.824 285 599.858 285H581.182C579.572 285 578.392 284.732 577.64 284.195C576.996 283.658 576.245 283.014 575.386 282.263L547.211 250.707V280.975C547.211 282.156 546.836 283.122 546.084 283.873C545.333 284.624 544.421 285 543.347 285H527.569ZM637.797 286.61C632.108 286.61 627.01 285.537 622.502 283.39C617.994 281.136 614.398 278.131 611.715 274.374C609.031 270.617 607.69 266.431 607.69 261.816C607.69 254.195 610.749 248.185 616.867 243.784C623.092 239.383 631.249 236.378 641.339 234.768L662.43 231.709V228.811C662.43 224.625 661.464 221.405 659.532 219.151C657.6 216.897 654.219 215.77 649.389 215.77C645.847 215.77 643.002 216.468 640.856 217.863C638.709 219.258 637.045 221.083 635.865 223.337C635.006 224.732 633.772 225.43 632.162 225.43H616.867C615.686 225.43 614.774 225.108 614.13 224.464C613.486 223.713 613.217 222.854 613.325 221.888C613.325 220.063 614.022 217.917 615.418 215.448C616.813 212.979 618.96 210.564 621.858 208.203C624.756 205.734 628.459 203.695 632.967 202.085C637.475 200.475 643.002 199.67 649.55 199.67C656.312 199.67 662.108 200.475 666.938 202.085C671.768 203.695 675.632 205.949 678.53 208.847C681.428 211.745 683.574 215.126 684.97 218.99C686.365 222.747 687.063 226.825 687.063 231.226V280.975C687.063 282.156 686.687 283.122 685.936 283.873C685.184 284.624 684.218 285 683.038 285H667.26C666.186 285 665.274 284.624 664.523 283.873C663.771 283.122 663.396 282.156 663.396 280.975V275.018C662 277.057 660.122 278.989 657.761 280.814C655.399 282.531 652.555 283.927 649.228 285C646.008 286.073 642.197 286.61 637.797 286.61ZM644.237 269.866C647.779 269.866 650.945 269.115 653.736 267.612C656.526 266.109 658.727 263.802 660.337 260.689C661.947 257.576 662.752 253.659 662.752 248.936V246.199L647.779 248.614C641.983 249.58 637.743 251.029 635.06 252.961C632.376 254.893 631.035 257.254 631.035 260.045C631.035 262.084 631.625 263.855 632.806 265.358C634.094 266.861 635.757 267.988 637.797 268.739C639.836 269.49 641.983 269.866 644.237 269.866ZM710.581 285C709.4 285 708.434 284.624 707.683 283.873C706.932 283.122 706.556 282.156 706.556 280.975V174.715C706.556 173.534 706.932 172.568 707.683 171.817C708.434 171.066 709.4 170.69 710.581 170.69H726.681C727.754 170.69 728.667 171.066 729.418 171.817C730.169 172.568 730.545 173.534 730.545 174.715V280.975C730.545 282.156 730.169 283.122 729.418 283.873C728.667 284.624 727.754 285 726.681 285H710.581Z" fill="#1B2338"/>
</svg>
